<svg xmlns="http://www.w3.org/2000/svg" viewBox="0 0 640 480">
	<rect width="640" height="480" fill="#012169"/>
	<path fill="#fff" d="M0 0h320v240H0z"/>
	<path fill="#012169" d="M0 0v27l284 213h36v-27L36 0zm320 0v27L36 240H0v-27L284 0z"/>
	<path fill="#fff" d="M133 0h54v240h-54zM0 93h320v54H0z"/>
	<path fill="#c8102e" d="M144 0h32v240h-32zM0 104h320v32H0z"/>
	<path fill="#c8102e" d="m0 0 107 80h-43L0 32zm320 0-107 80h43l64-48zM0 240l107-80H64L0 208zm320 0-107-80h43l64 48z"/>
	<g fill="#fff">
		<path d="m480 70 13 39 41-1-34 24 14 39-34-24-33 24 13-39-33-24 41 1z"/>
		<path d="m410 270 9 27 29-1-24 17 10 27-24-17-23 17 9-27-23-17 29 1z"/>
		<path d="m520 250 9 27 29-1-24 17 10 27-24-17-23 17 9-27-23-17 29 1z"/>
		<path d="m460 360 9 27 29-1-24 17 10 27-24-17-23 17 9-27-23-17 29 1z"/>
		<path d="m570 350 7 21 22-1-18 13 8 21-19-13-18 13 7-21-17-13 22 1z"/>
		<path d="m340 330 15 45 47-1-38 28 15 45-39-28-38 28 15-45-38-28 47 1z"/>
	</g>
</svg>
