<svg xmlns="http://www.w3.org/2000/svg" viewBox="0 0 640 480">
	<rect width="640" height="480" fill="#244aa5"/>
	<g fill="#fff">
		<path d="m202 113 7 21 22-1-18 13 8 21-19-13-18 13 7-21-17-13 22 1z"/>
		<path d="m249 91 7 21 22-1-18 13 8 21-19-13-18 13 7-21-17-13 22 1z"/>
		<path d="m304 82 7 21 22-1-18 13 8 21-19-13-18 13 7-21-17-13 22 1z"/>
		<path d="m359 91 7 21 22-1-18 13 8 21-19-13-18 13 7-21-17-13 22 1z"/>
		<path d="m406 113 7 21 22-1-18 13 8 21-19-13-18 13 7-21-17-13 22 1z"/>
		<path d="m452 148 7 21 22-1-18 13 8 21-19-13-18 13 7-21-17-13 22 1z"/>
	</g>
	<path fill="#d0a650" d="M211 304c18-12 22-31 34-49 12-19 29-38 55-46 25-8 47 0 67 14 11 8 20 19 32 24 16 6 35 0 48 12 10 9 8 25 20 32 13 8 33 0 45 12 9 9 4 26-6 34-17 14-44 7-60 22-12 11-10 30-24 39-15 10-35-1-52 5-16 6-27 24-44 28-20 5-35-14-54-15-17-2-32 12-49 10-19-2-33-20-32-39 1-18 16-31 10-49-3-10-15-22 0-34z"/>
</svg>
